#!OML:ASF F:\VICON\USERDATA\INSTALL\SteveWalk\SteveWalk.ASF
:FULLY-SPECIFIED
:DEGREES
308
root 0.27982 15.9103 21.3776 17.9276 -1.26962 3.67742
lowerback -15.0651 0.70935 -7.54275
upperback -5.25386 2.11201 -2.13018
thorax 2.65728 1.08491 2.36742
lowerneck -5.72776 -1.23117 -1.36799
upperneck 6.83668 -1.77649 3.18218
head 3.25934 -0.794135 1.19875
rclavicle -1.47535e-014 2.5842e-014
rhumerus -24.8387 6.07332 -84.516
rradius 60.3003
rwrist -21.7365
rhand -24.3456 -37.1243
rfingers 7.12502
rthumb 2.14363 -67.0933
lclavicle -1.47535e-014 2.5842e-014
lhumerus -73.8794 33.0534 27.2937
lradius 9.06565
lwrist -52.2614
lhand -11.1244 -10.6866
lfingers 7.12502
lthumb 14.9007 18.7575
rfemur -12.1776 -3.00816 14.16
rtibia 57.0188
rfoot 22.421 14.8589
rtoes -13.4298
lfemur -48.0413 2.23801 -27.7573
ltibia 37.609
lfoot -9.3454 -6.3929
ltoes -8.4133
309
root 0.304007 15.9473 21.6065 17.8237 -1.39095 3.8622
lowerback -15.1817 0.623247 -7.51791
upperback -5.11182 2.02027 -2.26943
thorax 2.88583 1.02651 2.19762
lowerneck -5.9308 -1.16888 -1.32924
upperneck 6.92152 -1.69901 3.20033
head 3.32546 -0.751697 1.20188
rclavicle -2.34877e-014 1.19271e-015
rhumerus -25.6464 6.56347 -85.3327
rradius 59.7988
rwrist -22.5414
rhand -23.1468 -31.379
rfingers 7.12502
rthumb 3.30134 -61.3332
lclavicle -2.34877e-014 1.19271e-015
lhumerus -73.984 34.0513 26.6211
lradius 9.23145
lwrist -52.7853
lhand -11.1412 -11.2308
lfingers 7.12502
lthumb 14.8844 18.2145
rfemur -13.6616 -3.36595 13.7794
rtibia 59.447
rfoot 23.9017 13.7533
rtoes -11.8046
lfemur -46.9547 2.37992 -28.1324
ltibia 37.6916
lfoot -10.0545 -6.35871
ltoes -8.20547
310
root 0.319778 15.9778 21.8211 17.6558 -1.60941 3.93596
lowerback -15.0715 0.561702 -7.52993
upperback -5.0475 1.93636 -2.34357
thorax 2.90491 0.981964 2.11062
lowerneck -6.04071 -1.04774 -1.25191
upperneck 7.1961 -1.55026 3.20054
head 3.43693 -0.672981 1.19708
rclavicle -1.25793e-014 2.38542e-015
rhumerus -26.5962 6.9387 -86.1697
rradius 59.3283
rwrist -23.2424
rhand -23.8271 -33.6475
rfingers 7.12502
rthumb 2.64438 -63.6108
lclavicle -1.25793e-014 2.38542e-015
lhumerus -74.2628 34.8957 25.8393
lradius 9.60589
lwrist -53.3362
lhand -11.1283 -11.8188
lfingers 7.12502
lthumb 14.8969 17.6255
rfemur -15.143 -3.557 13.6147
rtibia 61.8174
rfoot 24.4711 12.8477
rtoes -7.29167
lfemur -45.8442 2.55895 -28.3271
ltibia 37.754
lfoot -11.0505 -5.88287
ltoes -10.1486
311
root 0.337811 16.0034 22.0304 17.5355 -1.83013 4.09735
lowerback -14.9319 0.499145 -7.59939
upperback -5.09218 1.85067 -2.44954
thorax 2.79109 0.943705 2.01968
lowerneck -5.80061 -0.926216 -1.04833
upperneck 7.34668 -1.40225 3.0996
head 3.43472 -0.598851 1.13542
rclavicle -9.56651e-016 5.56597e-015
rhumerus -27.6343 6.9419 -86.9725
rradius 58.6668
rwrist -23.5165
rhand -23.937 -33.2258
rfingers 7.12502
rthumb 2.53822 -63.1905
lclavicle -9.56651e-016 5.56597e-015
lhumerus -74.5086 35.5861 25.0375
lradius 9.83534
lwrist -53.8841
lhand -11.2865 -12.5825
lfingers 7.12502
lthumb 14.7444 16.8731
rfemur -16.7103 -3.7389 13.3867
rtibia 64.1422
rfoot 21.4495 11.9911
rtoes -12.1978
lfemur -44.8255 2.60293 -28.5704
ltibia 37.8114
lfoot -12.0245 -5.25207
ltoes -11.3634
312
root 0.357025 16.029 22.2425 17.4802 -2.11912 4.38033
lowerback -14.873 0.439319 -7.77747
upperback -5.13715 1.79197 -2.56389
thorax 2.71371 0.918013 1.987
lowerneck -5.49273 -0.833679 -0.938451
upperneck 7.26027 -1.27888 3.00943
head 3.33964 -0.541314 1.09111
rclavicle 5.86415e-015 -4.37326e-014
rhumerus -28.6205 6.62248 -87.6467
rradius 57.8265
rwrist -23.3037
rhand -22.8456 -29.389
rfingers 7.12502
rthumb 3.59217 -59.3385
lclavicle 5.86415e-015 -4.37326e-014
lhumerus -74.659 36.4368 24.3401
lradius 9.94376
lwrist -54.5147
lhand -11.5365 -13.5994
lfingers 7.12502
lthumb 14.5037 15.8737
rfemur -18.441 -3.92875 13.0133
rtibia 66.3426
rfoot 18.3873 10.9942
rtoes -13.1061
lfemur -43.8918 2.58997 -28.9343
ltibia 37.8958
lfoot -12.7401 -4.68209
ltoes -11.2213
313
root 0.365794 16.0501 22.4525 17.4054 -2.49731 4.31627
lowerback -14.8476 0.45678 -7.76416
upperback -5.0961 1.81092 -2.53546
thorax 2.74148 0.925131 2.01258
lowerneck -5.49154 -0.790324 -0.93684
upperneck 7.28596 -1.21493 2.92791
head 3.34572 -0.512645 1.06705
rclavicle -1.87541e-014 -1.07344e-014
rhumerus -29.3979 6.00863 -88.0645
rradius 56.5883
rwrist -22.3118
rhand -22.9498 -47.4355
rfingers 7.12502
rthumb 3.49161 -77.3866
lclavicle -1.87541e-014 -1.07344e-014
lhumerus -74.6645 37.6283 23.8076
lradius 10.0781
lwrist -55.2744
lhand -11.5467 -13.7845
lfingers 7.12502
lthumb 14.4938 15.6892
rfemur -20.3074 -3.87285 13.1366
rtibia 68.3518
rfoot 15.6296 9.79728
rtoes -10.9214
lfemur -42.9875 2.7576 -28.885
ltibia 37.998
lfoot -13.3914 -4.11855
ltoes -11.5718
314
root 0.381805 16.0749 22.6769 17.5095 -2.45278 3.73221
lowerback -15.1792 0.44055 -7.02953
upperback -5.08115 1.7105 -2.38715
thorax 2.96723 0.864858 1.74958
lowerneck -5.64262 -0.709919 -0.949233
upperneck 7.60391 -1.11229 2.91502
head 3.483 -0.459308 1.07212
rclavicle -1.61761e-014 3.97569e-016
rhumerus -30.1992 5.61481 -88.5439
rradius 55.2025
rwrist -21.7016
rhand -15.8528 -74.0408
rfingers 7.12502
rthumb 10.3421 -256.234
lclavicle -1.61761e-014 3.97569e-016
lhumerus -71.7112 37.5606 28.1056
lradius 10.3445
lwrist -52.0192
lhand -11.5345 -13.0538
lfingers 7.12502
lthumb 14.5056 16.4191
rfemur -22.1001 -4.07716 13.9464
rtibia 70.0093
rfoot 12.8406 8.66721
rtoes -6.8935
lfemur -42.2689 2.81783 -28.2751
ltibia 38.1022
lfoot -14.4772 -3.48025
ltoes -15.1218
